<svg xmlns="http://www.w3.org/2000/svg" viewBox="0 0 82.72 75"><g id="Layer_2" data-name="Layer 2"><g id="Location_icon" data-name="Location icon"><path d="M73.19,5a4.53,4.53,0,0,1,4.53,4.53V65.47A4.53,4.53,0,0,1,73.19,70H9.53A4.53,4.53,0,0,1,5,65.47V9.53A4.53,4.53,0,0,1,9.53,5H73.19m0-5H9.53A9.53,9.53,0,0,0,0,9.53V65.47A9.53,9.53,0,0,0,9.53,75H73.19a9.53,9.53,0,0,0,9.53-9.53V9.53A9.53,9.53,0,0,0,73.19,0Z"/></g><g id="Layer_6" data-name="Layer 6"><rect x="25.88" y="1.65" width="5" height="71.85" rx="2.5"/><rect x="52.3" y="1.5" width="5" height="71.85" rx="2.5"/><rect x="39.36" y="-14" width="5" height="80" rx="2.5" transform="translate(67.86 -15.86) rotate(90)"/><rect x="39.36" y="10" width="5" height="80" rx="2.5" transform="translate(91.86 8.14) rotate(90)"/></g></g></svg>