<svg xmlns="http://www.w3.org/2000/svg" viewBox="0 0 77 82.5"><defs><style>.cls-1,.cls-2{fill:none;}.cls-1{stroke:#000;stroke-miterlimit:10;stroke-width:6px;}</style></defs><g id="Layer_2" data-name="Layer 2"><g id="Layer_6" data-name="Layer 6"><path class="cls-1" d="M38.5,3A25.5,25.5,0,0,0,20.34,46.4L35.42,64.83a4.08,4.08,0,0,0,6.23,0l15-18.46A25.49,25.49,0,0,0,38.5,3Zm0,18.89a6.61,6.61,0,1,1-6.61,6.61A6.61,6.61,0,0,1,38.5,21.89Z"/><path class="cls-2" d="M55.39,58.07h0l-.3,0,0,0Z"/><path class="cls-2" d="M21.94,58.08a3.62,3.62,0,0,0-.56,0H22Z"/><path class="cls-2" d="M21.94,58.08l0,0,33.1,0,0,0C52,57.89,26.14,57.91,21.94,58.08Z"/><path class="cls-2" d="M40.5,76,55.07,58.07l-33.1,0L36.5,76,22,58.11h-.59C10.71,60.28,5,64.17,5,67c0,4.38,12.74,10.5,33.5,10.5S72,71.38,72,67c0-2.85-5.8-6.78-16.61-8.93h-.32Z"/><path d="M59.14,53.76l-.52-.06,0,.06Z"/><path d="M18.37,53.69c-.18,0-.33,0-.41.05h.46Z"/><path d="M59.14,53.76h-.57L55.09,58l.3,0h0C66.2,60.22,72,64.15,72,67c0,4.38-12.74,10.5-33.5,10.5S5,71.38,5,67c0-2.83,5.71-6.72,16.38-8.88h0a3.62,3.62,0,0,1,.56,0l-3.52-4.34H18C6.6,56.45,0,61.24,0,67,0,77.07,19.84,82.5,38.5,82.5S77,77.07,77,67C77,61.25,70.44,56.47,59.14,53.76Z"/><polygon points="21.97 58 21.97 58 21.38 58 21.38 58 21.97 58"/></g></g></svg>