<svg xmlns="http://www.w3.org/2000/svg" viewBox="0 0 24.92 37.13"><defs><style>.cls-1{stroke:#000;stroke-miterlimit:10;stroke-width:4px;}</style></defs><g id="Layer_2" data-name="Layer 2"><g id="Layer_1-2" data-name="Layer 1"><path class="cls-1" d="M20.54,2.22,2.35,17.48a1.42,1.42,0,0,0,.11,2,1.42,1.42,0,0,0,1.92.45L22.57,4.65a1.43,1.43,0,0,0-.1-2A1.44,1.44,0,0,0,20.54,2.22Z"/><path class="cls-1" d="M20.54,34.91,2.35,19.65a1.42,1.42,0,0,1,.11-2,1.42,1.42,0,0,1,1.92-.45L22.57,32.48a1.43,1.43,0,0,1-.1,2A1.44,1.44,0,0,1,20.54,34.91Z"/></g></g></svg>