<svg xmlns="http://www.w3.org/2000/svg" viewBox="0 0 43.89 45.99"><defs><style>.cls-1{fill:#fff;}</style></defs><g id="Layer_2" data-name="Layer 2"><g id="Layer_1-2" data-name="Layer 1"><path class="cls-1" d="M33.94,12.89c0,7.51-5.1,13.07-12,13S9.9,20.32,10,12.79C10,5.52,15,.11,21.75,0,28.71-.11,33.92,5.39,33.94,12.89Z"/><path class="cls-1" d="M21.46,46c-5.48,0-11,0-16.42,0C2.86,46,1,45.53.2,43.34s.88-3.71,2.43-5c9.84-8.12,28.71-8.12,38.61,0,1.57,1.28,3.23,2.68,2.45,5-.85,2.47-3,2.69-5.32,2.67C32.73,45.92,27.1,46,21.46,46Z"/></g></g></svg>