<svg xmlns="http://www.w3.org/2000/svg" viewBox="0 0 77 79.5"><defs><style>.cls-1{fill:none;}</style></defs><g id="Layer_2" data-name="Layer 2"><g id="Location_icon" data-name="Location icon"><path d="M41.84,65.47,58.5,45h-40L35.24,65.47A4.32,4.32,0,0,0,41.84,65.47Z"/><path d="M65.5,27a27,27,0,1,1-27-27A27,27,0,0,1,65.5,27Zm-27-7a7,7,0,1,0,7,7A7,7,0,0,0,38.5,20Z"/><path class="cls-1" d="M55.39,55.07h0l-.3,0,0,0Z"/><path class="cls-1" d="M21.94,55.08a3.62,3.62,0,0,0-.56,0H22Z"/><path class="cls-1" d="M21.94,55.08l0,0,33.1,0,0,0C52,54.89,26.14,54.91,21.94,55.08Z"/><path class="cls-1" d="M40.5,73,55.07,55.07l-33.1,0L36.5,73,22,55.11h-.59C10.71,57.28,5,61.17,5,64c0,4.38,12.74,10.5,33.5,10.5S72,68.38,72,64c0-2.85-5.8-6.78-16.61-8.93h-.32Z"/><path d="M59.14,50.76l-.52-.06,0,.06Z"/><path d="M18.37,50.69c-.18,0-.33,0-.41.05h.46Z"/><path d="M59.14,50.76h-.57L55.09,55l.3,0h0C66.2,57.22,72,61.15,72,64c0,4.38-12.74,10.5-33.5,10.5S5,68.38,5,64c0-2.83,5.71-6.72,16.38-8.88h0a3.62,3.62,0,0,1,.56,0l-3.52-4.34H18C6.6,53.45,0,58.24,0,64,0,74.07,19.84,79.5,38.5,79.5S77,74.07,77,64C77,58.25,70.44,53.47,59.14,50.76Z"/><polygon points="21.97 55 21.97 55 21.38 55 21.38 55 21.97 55"/></g></g></svg>