<svg xmlns="http://www.w3.org/2000/svg" viewBox="0 0 83.93 75.4"><defs><style>.cls-1{fill:#aeaeb2;}.cls-2{fill:#fff;}</style></defs><g id="Layer_2" data-name="Layer 2"><g id="Files_icon" data-name="Files icon"><rect class="cls-1" width="75" height="68" rx="10.04"/><rect class="cls-2" x="7.25" y="14" width="60.25" height="46" rx="7.92"/><circle class="cls-1" cx="17.25" cy="29.18" r="3"/><rect class="cls-1" x="25.63" y="38.45" width="30" height="5.81" rx="2.77"/><rect class="cls-1" x="25.84" y="26.27" width="30" height="5.81" rx="2.77"/><circle class="cls-1" cx="17.04" cy="41.36" r="3"/><path class="cls-1" d="M72.38,72.4a8.57,8.57,0,0,1-6.06-2.49L47.92,51.5a8.56,8.56,0,0,1-2.44-5l-1.81-6.7A3.81,3.81,0,0,1,47.34,35a3.49,3.49,0,0,1,1,.13L55,36.93a8.62,8.62,0,0,1,5,2.44l18.4,18.39A8.57,8.57,0,0,1,72.38,72.4Z"/><path class="cls-2" d="M47.34,38a.76.76,0,0,1,.21,0l6.93,1.86h0a5.54,5.54,0,0,1,3.41,1.6l18.4,18.4a5.58,5.58,0,0,1-7.89,7.89L50,49.38a5.55,5.55,0,0,1-1.61-3.45L46.57,39a.8.8,0,0,1,.77-1m0-6A6.84,6.84,0,0,0,42,34.65a6.75,6.75,0,0,0-1.19,5.88l1.76,6.54a11.58,11.58,0,0,0,3.27,6.56L64.19,72A11.58,11.58,0,0,0,80.57,55.66L62.16,37.25A11.65,11.65,0,0,0,55.62,34L49.1,32.23A7.09,7.09,0,0,0,47.34,32Z"/></g></g></svg>