<svg xmlns="http://www.w3.org/2000/svg" viewBox="0 0 24.92 37.13"><defs><style>.cls-1{stroke:#000;stroke-miterlimit:10;stroke-width:4px;}</style></defs><g id="Layer_2" data-name="Layer 2"><g id="Layer_1-2" data-name="Layer 1"><path class="cls-1" d="M4.38,2.22,22.57,17.48a1.43,1.43,0,0,1-.1,2,1.44,1.44,0,0,1-1.93.45L2.35,4.65a1.42,1.42,0,0,1,.11-2A1.42,1.42,0,0,1,4.38,2.22Z"/><path class="cls-1" d="M4.38,34.91,22.57,19.65a1.43,1.43,0,0,0-.1-2,1.44,1.44,0,0,0-1.93-.45L2.35,32.48a1.42,1.42,0,0,0,.11,2A1.42,1.42,0,0,0,4.38,34.91Z"/></g></g></svg>