<svg xmlns="http://www.w3.org/2000/svg" viewBox="0 0 68.32 84.77"><defs><style>.cls-1{fill:#ff3b30;}.cls-2{fill:#fff;}.cls-3{fill:#c69c6d;}</style></defs><g id="Layer_2" data-name="Layer 2"><g id="Location_icon" data-name="Location icon"><path class="cls-1" d="M38.39,82.83l21.07-25.9H8.86L30,82.83A5.48,5.48,0,0,0,38.39,82.83Z"/><path class="cls-1" d="M68.32,34.16A34.16,34.16,0,1,1,34.16,0,34.17,34.17,0,0,1,68.32,34.16ZM34.16,25.3A8.86,8.86,0,1,0,43,34.16,8.86,8.86,0,0,0,34.16,25.3Z"/><path class="cls-2" d="M21.25,26.2c-.39-2.9-.75-4.85-.89-6.81-.11-1.49-.13-3.29,2-3.35,1.76,0,1.93,1.47,2,2.87a17.3,17.3,0,0,0,.2,2.49c1.15,6.13,4.11,8.46,10.62,8.42,5,0,8-2.9,9-8.57.2-1.14.09-2.34.28-3.48a1.91,1.91,0,0,1,3.81.27c-.12,2.46-.39,4.92-.63,7.69,3.57-2.59,4.51-6.12,4.71-10,.09-1.62-.21-3.85,2.21-3.61,2.25.22,1.83,2.44,1.75,4a18,18,0,0,1-8.14,14.69c-1,.67-3.07.82-2.43,2.57a3.55,3.55,0,0,0,3.93,2.43,16.06,16.06,0,0,1,4,0c1.51.22,3.79-1.09,4.36.94s-.83,4.71-2.52,5c-6.63.93-6.35,6.36-7.84,10.76C46,57.43,42.06,60.78,38.5,64.19c-2.77,2.66-6.31,2.28-9-.42-4.81-4.86-9.54-9.89-10-17.27-.11-1.71-.44-2.75-2.47-2.86a6.4,6.4,0,0,1-4.36-2.22c-1.24-1.37-2.65-3-1.92-4.83.62-1.54,2.64-.63,4-.74a25.89,25.89,0,0,1,4.49,0,3.48,3.48,0,0,0,3.57-2.2c1-2-1.19-2-2.08-2.64a18.09,18.09,0,0,1-8.39-15.57c0-1.5-.12-3.35,1.95-3.37s2,1.82,2,3.32A13.59,13.59,0,0,0,21.25,26.2Zm19,30.11a16.67,16.67,0,0,0-1.8-2.63c-1-1-1.31.35-1.77.83-1.58,1.63-3.09,1.64-4.68,0-.46-.48-.76-1.8-1.76-.84a9.84,9.84,0,0,0-1.41,2.41s2.07,5.54,5.5,5.6S40.23,56.31,40.23,56.31Z"/><circle class="cls-3" cx="25.82" cy="44.32" r="2.5"/><circle class="cls-3" cx="43.82" cy="44.32" r="2.5"/></g></g></svg>