<svg xmlns="http://www.w3.org/2000/svg" viewBox="0 0 77 79.5"><defs><style>.cls-1{fill:#f5ba00;}</style></defs><g id="Layer_2" data-name="Layer 2"><g id="Location_icon" data-name="Location icon"><path class="cls-1" d="M41.84,65.47,58.5,45h-40L35.24,65.47A4.32,4.32,0,0,0,41.84,65.47Z"/><path class="cls-1" d="M65.5,27a27,27,0,1,1-27-27A27,27,0,0,1,65.5,27Zm-27-7a7,7,0,1,0,7,7A7,7,0,0,0,38.5,20Z"/><path class="cls-1" d="M59.14,50.76h-.57L55.09,55l.3,0h0C66.2,57.22,72,61.15,72,64c0,4.38-12.74,10.5-33.5,10.5S5,68.38,5,64c0-2.83,5.71-6.72,16.38-8.88h0a3.62,3.62,0,0,1,.56,0l-3.52-4.34H18C6.6,53.45,0,58.24,0,64,0,74.07,19.84,79.5,38.5,79.5S77,74.07,77,64C77,58.25,70.44,53.47,59.14,50.76Z"/><polygon class="cls-1" points="21.97 55 21.97 55 21.38 55 21.38 55 21.97 55"/></g></g></svg>