<svg id="Layer_1" data-name="Layer 1" xmlns="http://www.w3.org/2000/svg" viewBox="0 0 256 256"><defs><style>.cls-1{fill:#ffc000;}.cls-2{fill:#d79911;}</style></defs><circle class="cls-1" cx="128" cy="128" r="128"/><path class="cls-2" d="M137.8,98.64l-11.09,6,6.94-.9L109.26,93.7c-1.1-.46-2.19-1-3.31-1.37a15.27,15.27,0,0,0-17.91,7,15.83,15.83,0,0,0,2.59,18.36,26.36,26.36,0,0,0,5.91,4l8,4.69a56.28,56.28,0,0,1,5,3l-1.82-1.41a9.34,9.34,0,0,1,1.38,1.36l-1.41-1.82a8.93,8.93,0,0,1,1,1.6l-.91-2.15a8.28,8.28,0,0,1,.59,2l-.32-2.39a9,9,0,0,1,0,2.14l.32-2.4a8.38,8.38,0,0,1-.59,2.08l.91-2.15a8.75,8.75,0,0,1-1,1.63l1.41-1.82a25.43,25.43,0,0,1-3.1,2.85l-6.27,5.41L82,149.72l-12.8,11a15.82,15.82,0,0,0-5.74,12.92,16.6,16.6,0,0,0,4.67,10.56l.94.93L98,214c3.21,3.21,6.4,6.44,9.63,9.63a15.57,15.57,0,0,0,21.56.39,19.47,19.47,0,0,0,4.15-6.32l17.11-35.06a13.6,13.6,0,0,1,1.23-2.12l-1.4,1.82a10.82,10.82,0,0,1,1.46-1.49l-1.82,1.41a10.32,10.32,0,0,1,2.07-1.24l-2.15.91a9.69,9.69,0,0,1,2.36-.63l-2.39.32a95.09,95.09,0,0,1,9.7-.07h31.72c1.71,0,3.4.23,5.1.34,5.69.38,12-.8,16-5.22a25.34,25.34,0,0,0,6-14.71c.62-6.74-2.21-13.55-6.68-18.47-1.93-2.13-4.27-4-6.39-5.91l-25.3-23.08c-3.48-3.17-6.9-6.55-11.14-8.69a38.6,38.6,0,0,0-10.88-3.52l-8.5-1.55-1.91-.35,4,2.32L136.09,87.56l-14-13.83c-2.59-2.57-5.51-5-7.76-7.93l1.4,1.83a19,19,0,0,1-2.16-3.76l.91,2.15a18.52,18.52,0,0,1-1.15-4.18l.32,2.39a38.48,38.48,0,0,1-.17-5V28c0-4.71-4.14-9.22-9-9a9.17,9.17,0,0,0-9,9V61.06a27,27,0,0,0,7.79,19.36c5.68,5.68,11.42,11.31,17.12,17l14.14,14c2.65,2.62,5.24,5.89,9.06,6.58s7.68,1.38,11.51,2.1a26,26,0,0,1,5.19,1.54l-2.15-.91a26.14,26.14,0,0,1,5.34,3.11l-1.82-1.4c1.65,1.29,3.17,2.77,4.72,4.18l8.5,7.76L194.32,152a48.93,48.93,0,0,1,5.28,5.1l-1.41-1.83a17.52,17.52,0,0,1,2.1,3.57l-.91-2.15a16.76,16.76,0,0,1,1.1,3.93l-.32-2.39a17.15,17.15,0,0,1,0,4.47l.32-2.39a16.66,16.66,0,0,1-1,3.68l.91-2.15a27.82,27.82,0,0,1-2.09,3.69l1.4-1.82a8.35,8.35,0,0,1-1,1l1.82-1.41a8.11,8.11,0,0,1-1.7,1l2.15-.91a11.16,11.16,0,0,1-2.78.72l2.39-.32c-3.23.37-6.43-.29-9.66-.29H156.21c-1.79,0-3.58,0-5.37,0a18.14,18.14,0,0,0-16.1,10.27l-9.61,19.68c-2.84,5.82-5.64,11.67-8.53,17.47a8,8,0,0,1-.75,1.25l1.41-1.82a7.8,7.8,0,0,1-1.06,1.09l1.82-1.41a7.63,7.63,0,0,1-1.53.91l2.15-.91a7.61,7.61,0,0,1-1.7.45l2.4-.33a7.4,7.4,0,0,1-1.76,0l2.39.33a7.8,7.8,0,0,1-1.43-.41l2.15.91a7.7,7.7,0,0,1-1.34-.76l1.82,1.41a52.67,52.67,0,0,1-4.47-4.37l-9.56-9.56-21.6-21.61a60.7,60.7,0,0,1-5.39-5.49l1.41,1.82a8.3,8.3,0,0,1-.82-1.45l.91,2.15a8.73,8.73,0,0,1-.44-1.57l.32,2.39a8.31,8.31,0,0,1,0-1.93l-.32,2.39a7.67,7.67,0,0,1,.53-1.87l-.91,2.15a7.85,7.85,0,0,1,.85-1.42l-1.41,1.82a23.86,23.86,0,0,1,3-2.73l5.84-5L106,152.81l13.43-11.57A18.8,18.8,0,0,0,124,136a16.94,16.94,0,0,0-5.89-22.52c-2.68-1.68-5.48-3.19-8.22-4.78a81.72,81.72,0,0,1-7.71-4.56l1.82,1.41a7.51,7.51,0,0,1-1.18-1.21l1.41,1.82a7.62,7.62,0,0,1-.8-1.42l.91,2.15a7.5,7.5,0,0,1-.43-1.54l.33,2.39a7.63,7.63,0,0,1,0-1.85l-.32,2.4a7.27,7.27,0,0,1,.49-1.77l-.91,2.15a7.1,7.1,0,0,1,.66-1.13l-1.41,1.82a6.71,6.71,0,0,1,1.12-1.14L102,109.65a7.06,7.06,0,0,1,1.22-.71l-2.15.91a8.19,8.19,0,0,1,1.76-.48l-2.39.32a9,9,0,0,1,1.72,0l-2.39-.32c2.15.34,4.22,1.49,6.21,2.31l11.07,4.57,9.74,4c.66.27,1.33.6,2,.83,3.13,1,6-.35,8.63-1.79l9.43-5.13c4.14-2.25,5.81-8.31,3.23-12.31a9.19,9.19,0,0,0-12.31-3.23Z"/><path class="cls-2" d="M118.44,40.34l-.54,25.77-.36,17.3-.12,5.49c-.06,3,.36,5.67,2.62,8.1,3.3,3.55,6.92,6.85,10.37,10.27,4,3.92,11.41,3.37,14.14-1.82l16.51-31.38,2.36-4.5c2.19-4.16,1.2-10-3.23-12.31-4.15-2.19-10-1.22-12.31,3.23L131.37,91.87,129,96.36l14.14-1.82L132.75,84.25l2.64,6.37.35-17,.57-27,.13-6.24c.09-4.71-4.21-9.21-9-9a9.17,9.17,0,0,0-9,9Z"/><path d="M134.16,100.54l-11.09,6,4.62-.6L110,98.64l-9.08-3.75A11.68,11.68,0,0,0,95.51,94a12.19,12.19,0,0,0-10.75,7.88,12.42,12.42,0,0,0,1,10.75,14.25,14.25,0,0,0,5.11,4.74l9.94,5.78,4,2.35.42.25c.22.12.77.54.06,0s.07.13.25.29.62.77,0,0-.19-.26-.1-.1a3.37,3.37,0,0,0,.47.81c-.08-.06-.5-1.46-.25-.58,0,.2.13.39.18.59s.05.31.1.44c.21.51-.1-.82-.1-.84a7.66,7.66,0,0,0,0,1.07,3.67,3.67,0,0,0,0,.46s.3-1.35.1-.84c-.13.36-.25.83-.34,1.19-.12.54.29-.7.3-.71s-.16.31-.22.41-.77,1.15-.17.32-.24.19-.45.38-.68.59-1,.88l-15,12.92-18.55,16-4.81,4.15c-4.72,4.08-6.08,11.6-2.36,16.83a34.89,34.89,0,0,0,3.93,4.31l6.52,6.53L92,208.34l12.24,12.24c4.09,4.08,10.46,5.39,15.54,2.23,2.91-1.8,4.31-4.38,5.73-7.28l10.26-21c2.39-4.88,4.69-9.81,7.15-14.64.14-.27.28-.53.44-.78.68-1.11-.67.62,0-.05.2-.21.61-.49.74-.74,0,0-1.05.73-.53.41.25-.15.48-.33.73-.47s.32-.15.46-.24c.51-.32-.63.25-.64.25a7.21,7.21,0,0,0,1-.31,5,5,0,0,0,.69-.14s-1.33.08-.71.12c.17,0,.36,0,.54,0,.52,0,1,0,1.56,0h33.93c1.92,0,3.85-.05,5.77,0s4.06.41,6.11.42c3.35,0,7-.59,9.77-2.59,5.42-3.91,8-11.71,7.18-18.15a22.2,22.2,0,0,0-6.94-13.82l-14.7-13.41-17.1-15.6a70.87,70.87,0,0,0-5.51-4.71,28.67,28.67,0,0,0-11.14-5c-1.23-.26-2.47-.46-3.71-.68l-9.4-1.71,2.65,1.54-13.4-13.26L120.18,80.44l-8.66-8.57L109,69.41l-.38-.37c-.28-.29-.56-.58-.83-.88l-.38-.46c-.43-.48.33.41.33.43-.07-.3-.49-.71-.66-1a14.14,14.14,0,0,1-.77-1.37l-.26-.54c-.3-.57.22.52.22.53a6.22,6.22,0,0,0-.39-1.12c-.12-.37-.22-.76-.32-1.14s-.1-.52-.16-.77c-.18-.81,0,.11,0,.41,0-.7-.11-1.43-.11-2.14s0-1.57,0-2.36V48.06c0-6.78.09-13.57,0-20.35,0-.14,0-.27,0-.4a6,6,0,0,0-12,0v25c0,3,0,5.92,0,8.88a23.81,23.81,0,0,0,5.73,15.19c.84,1,1.82,1.91,2.76,2.84l17.52,17.34,8.95,8.87c2.44,2.41,4.82,4.94,7.34,7.26,1.94,1.79,4.52,1.9,7,2.35l7.28,1.32c.91.17,1.82.33,2.71.57.54.14,1.06.29,1.59.47l.78.28c.2.07,1,.44.24.08s0,0,.22.12.5.24.74.36c.55.29,1.09.59,1.62.92s.91.6,1.37.91c.9.6-.11-.14-.22-.19a4.53,4.53,0,0,1,.8.66l.53.47.64.59,19.85,18.11,10.72,9.78,3,2.77c.22.2.45.39.66.6l.21.2.53.57.12.14c.33.4.33.39,0,0l-.24-.31c.16.21.3.41.44.62s.35.53.51.8c.25.44.46.89.7,1.33.36.7-.42-1.15-.17-.4.08.23.17.46.25.7a14.46,14.46,0,0,1,.4,1.43c.06.25.09.49.15.73.18.74-.12-1.4,0-.3a21,21,0,0,1,0,3.17c-.05.8.24-1.26.06-.47,0,.24-.09.49-.15.74-.13.56-.32,1.1-.47,1.66-.35,1.28.64-1.17.23-.52-.13.22-.25.46-.37.69-.29.56-.58,1.12-.88,1.67-.12.21-.26.42-.38.64-.43.79.28-.43.39-.49a3.41,3.41,0,0,0-.41.43c-.53.65.45-.33.56-.38-.15.07-.32.22-.47.31l-.49.28c-.87.55,1.39-.44.39-.16-.36.1-.73.23-1.1.31-.19.05-.38.07-.57.12-.95.2.75-.12.72-.1-.51.35-2.07.1-2.68.09-1.59-.05-3.16-.23-4.74-.36-.82-.06-1.63,0-2.45,0h-29c-3.38,0-6.76,0-10.13,0a15.22,15.22,0,0,0-13.88,8.64l-12,24.66-5.46,11.2c-.38.76-.84,1.52-1.18,2.3s.9-.93.37-.47a2.91,2.91,0,0,0-.43.43c-.43.56,1.13-.7.52-.37-.18.09-.34.21-.51.31s-.88.43,0,0,.29-.11,0-.06a5.27,5.27,0,0,0-.57.14c-.54.16,1.67,0,.43-.1l-.59,0c-.72,0,1.39.35.72.08a3.7,3.7,0,0,0-.57-.16c-.7-.13,1.18.66.59.26a2.78,2.78,0,0,0-.53-.3c-.65-.27,1,.88.45.37l-.36-.34c-5-4.74-9.72-9.71-14.57-14.56L77.24,176.56l-2.84-2.83-.68-.68-.15-.16,0,0-.36-.38c-.47-.48.66,1.15.25.25a3.74,3.74,0,0,0-.31-.59c.69.68.37,1.13.25.52a3.07,3.07,0,0,0-.16-.63c.48.72.08,1.32.09.63,0-.21,0-.44,0-.65,0-.92,0,.5-.11.63a3.31,3.31,0,0,0,.2-.78c.23-1.06.09.21-.19.37a4.27,4.27,0,0,0,.33-.58c.41-.81-.2.32-.34.4a7.19,7.19,0,0,0,.73-.73l.12-.1,2-1.71L97.75,150.8c5.3-4.57,10.76-9,15.94-13.74a13.75,13.75,0,0,0,3.76-13.84,14.3,14.3,0,0,0-6.7-8.21l-12.37-7.2-1.89-1.11a2,2,0,0,1-.25-.14,5.29,5.29,0,0,0-.5-.32c1.11.45.91.79.54.39a5.88,5.88,0,0,0-.48-.51c-.5-.44.79,1.25.36.43-.08-.15-.17-.32-.26-.47-.48-.79.38.69.28.69s-.25-.94-.28-1c.49,1.33.12,1.36.11.8,0-.18,0-.35,0-.53,0-1.46-.37,1.44,0,0,0-.17.1-.33.15-.5.23-.86-.23.75-.3.71a4.52,4.52,0,0,1,.25-.46c.39-.84-.44.7-.48.57s.66-.66.74-.76c-.88,1.08-1,.69-.54.46a2.71,2.71,0,0,1,.37-.21c.41-.21.16-.11-.77.31a3.76,3.76,0,0,0,.67-.22c.94-.29-.4.11-.36,0s.83.05.86,0c-.06.12-1.47-.37-.26,0,.21.06.41.12.62.2.42.15.83.34,1.24.51l5.48,2.26,14.85,6.13,5,2.08c.31.13.62.28.93.38a6.53,6.53,0,0,0,5.22-.91l10.51-5.71a6.07,6.07,0,0,0,2.16-8.21,6.13,6.13,0,0,0-8.21-2.15Z"/><path d="M116.28,39.65l-.54,25.77-.36,17.3-.11,5.49c0,2.23,0,4.08,1.74,6,3.26,3.58,6.92,6.86,10.37,10.27,2.64,2.61,7.6,2.24,9.42-1.22l16.51-31.38,2.36-4.49c1.46-2.78.8-6.65-2.15-8.21-2.77-1.46-6.65-.81-8.21,2.15L128.8,92.69l-2.36,4.49L135.86,96,125.48,85.69l1.75,4.24.36-17,.56-27,.13-6.24a6,6,0,0,0-12,0Z"/></svg>